<?xml version="1.0" encoding="UTF-8" standalone="no"?>
<svg
   viewBox="0 0 42 42"
   fill="none"
   version="1.1"
   id="svg25"
   sodipodi:docname="arrow-right.svg"
   inkscape:version="1.1.2 (b8e25be833, 2022-02-05)"
   xmlns:inkscape="http://www.inkscape.org/namespaces/inkscape"
   xmlns:sodipodi="http://sodipodi.sourceforge.net/DTD/sodipodi-0.dtd"
   xmlns="http://www.w3.org/2000/svg"
   xmlns:svg="http://www.w3.org/2000/svg">
  <sodipodi:namedview
     id="namedview27"
     pagecolor="#ffffff"
     bordercolor="#666666"
     borderopacity="1.0"
     inkscape:pageshadow="2"
     inkscape:pageopacity="0.0"
     inkscape:pagecheckerboard="true"
     showgrid="false"
     inkscape:showpageshadow="false"
     inkscape:zoom="4.49375"
     inkscape:cx="23.699583"
     inkscape:cy="18.1363"
     inkscape:window-width="1920"
     inkscape:window-height="1001"
     inkscape:window-x="-9"
     inkscape:window-y="-9"
     inkscape:window-maximized="1"
     inkscape:current-layer="svg25" />
  <circle
     style="fill:#ffffff;fill-opacity:0.1;stroke-width:2.80124"
     id="path1319"
     cx="21"
     cy="21"
     inkscape:label="outter"
     r="21" />
  <path
     d="m 24.339005,21.639005 c 0.0819,-0.0856 0.1462,-0.1865 0.189,-0.297 0.09,-0.2191 0.09,-0.4649 0,-0.684 -0.0428,-0.1105 -0.1071,-0.2114 -0.189,-0.297 l -2.7,-2.7 c -0.1695,-0.1695 -0.3993,-0.2647 -0.639,-0.2647 -0.2397,0 -0.4695,0.0952 -0.639,0.2647 -0.1695,0.1695 -0.2647,0.3993 -0.2647,0.639 0,0.2397 0.0952,0.4695 0.2647,0.639 l 1.17,1.161 h -3.231 c -0.2387,0 -0.4676,0.0948 -0.6364,0.2636 -0.1688,0.1688 -0.2636,0.3977 -0.2636,0.6364 0,0.2387 0.0948,0.4676 0.2636,0.6364 0.1688,0.1688 0.3977,0.2636 0.6364,0.2636 h 3.231 l -1.17,1.161 c -0.0844,0.0837 -0.1513,0.1832 -0.197,0.2929 -0.0457,0.1097 -0.0692,0.2273 -0.0692,0.3461 0,0.1188 0.0235,0.2364 0.0692,0.3461 0.0457,0.1097 0.1126,0.2092 0.197,0.2929 0.0837,0.0844 0.1832,0.1513 0.2929,0.197 0.1097,0.0457 0.2273,0.0692 0.3461,0.0692 0.1188,0 0.2364,-0.0235 0.3461,-0.0692 0.1097,-0.0457 0.2092,-0.1126 0.2929,-0.197 z m 5.661,-0.639 c 0,-1.78 -0.5278,-3.5201 -1.5168,-5.0001 -0.9889,-1.4801 -2.3945,-2.6336 -4.039,-3.3148 -1.6446,-0.6812 -3.4542,-0.85943 -5.2,-0.5122 -1.7458,0.3473 -3.3495,1.2045 -4.6082,2.4631 -1.2586,1.2587 -2.1158,2.8624 -2.4631,4.6082 -0.347229,1.7458 -0.168999,3.5554 0.5122,5.2 0.6812,1.6445 1.8347,3.0501 3.3148,4.039 1.48,0.989 3.2201,1.5168 5.0001,1.5168 2.387,0 4.6761,-0.9482 6.364,-2.636 1.6878,-1.6879 2.636,-3.977 2.636,-6.364 z m -16.2,0 c 0,-1.424 0.4223,-2.8161 1.2134,-4.0001 0.7912,-1.184 1.9157,-2.1069 3.2313,-2.6518 1.3156,-0.545 2.7633,-0.6876 4.16,-0.4098 1.3966,0.2779 2.6795,0.9636 3.6865,1.9705 1.0069,1.007 1.6926,2.2899 1.9705,3.6866 0.2778,1.3966 0.1352,2.8443 -0.4098,4.1599 -0.5449,1.3157 -1.4678,2.4401 -2.6518,3.2313 -1.184,0.7911 -2.5761,1.2134 -4.0001,1.2134 -1.9096,0 -3.7409,-0.7586 -5.0912,-2.1088 -1.3502,-1.3503 -2.1088,-3.1816 -2.1088,-5.0912 z"
     fill="#323759"
     id="path6"
     inkscape:label="inner"
     style="fill:#ffffff;fill-opacity:1" />
  <defs
     id="defs23">
    <filter
       id="filter0_d_2268_5694"
       x="0.62963003"
       y="0.62963003"
       width="39.111099"
       height="39.111099"
       filterUnits="userSpaceOnUse"
       color-interpolation-filters="sRGB">
      <feFlood
         flood-opacity="0"
         result="BackgroundImageFix"
         id="feFlood8" />
      <feColorMatrix
         in="SourceAlpha"
         type="matrix"
         values="0 0 0 0 0 0 0 0 0 0 0 0 0 0 0 0 0 0 127 0"
         result="hardAlpha"
         id="feColorMatrix10" />
      <feOffset
         dx="1.18519"
         dy="1.18519"
         id="feOffset12" />
      <feGaussianBlur
         stdDeviation="1.77778"
         id="feGaussianBlur14" />
      <feColorMatrix
         type="matrix"
         values="0 0 0 0 0 0 0 0 0 0 0 0 0 0 0 0 0 0 0.15 0"
         id="feColorMatrix16" />
      <feBlend
         mode="normal"
         in2="BackgroundImageFix"
         result="effect1_dropShadow_2268_5694"
         id="feBlend18" />
      <feBlend
         mode="normal"
         in="SourceGraphic"
         in2="effect1_dropShadow_2268_5694"
         result="shape"
         id="feBlend20" />
    </filter>
  </defs>
</svg>
