<svg width="40" height="40" viewBox="0 0 40 40" fill="none" xmlns="http://www.w3.org/2000/svg">
<g filter="url(#filter0_d_2268_5694)">
<circle cx="19" cy="19" r="16" fill="#FBFBFB"/>
</g>
<path d="M22.339 19.639C22.4209 19.5534 22.4852 19.4525 22.528 19.342C22.618 19.1229 22.618 18.8771 22.528 18.658C22.4852 18.5475 22.4209 18.4466 22.339 18.361L19.639 15.661C19.4695 15.4915 19.2397 15.3963 19 15.3963C18.7603 15.3963 18.5305 15.4915 18.361 15.661C18.1915 15.8305 18.0963 16.0603 18.0963 16.3C18.0963 16.5397 18.1915 16.7695 18.361 16.939L19.531 18.1H16.3C16.0613 18.1 15.8324 18.1948 15.6636 18.3636C15.4948 18.5324 15.4 18.7613 15.4 19C15.4 19.2387 15.4948 19.4676 15.6636 19.6364C15.8324 19.8052 16.0613 19.9 16.3 19.9H19.531L18.361 21.061C18.2766 21.1447 18.2097 21.2442 18.164 21.3539C18.1183 21.4636 18.0948 21.5812 18.0948 21.7C18.0948 21.8188 18.1183 21.9364 18.164 22.0461C18.2097 22.1558 18.2766 22.2553 18.361 22.339C18.4447 22.4234 18.5442 22.4903 18.6539 22.536C18.7636 22.5817 18.8812 22.6052 19 22.6052C19.1188 22.6052 19.2364 22.5817 19.3461 22.536C19.4558 22.4903 19.5553 22.4234 19.639 22.339L22.339 19.639ZM28 19C28 17.22 27.4722 15.4799 26.4832 13.9999C25.4943 12.5198 24.0887 11.3663 22.4442 10.6851C20.7996 10.0039 18.99 9.82567 17.2442 10.1729C15.4984 10.5202 13.8947 11.3774 12.636 12.636C11.3774 13.8947 10.5202 15.4984 10.1729 17.2442C9.82567 18.99 10.0039 20.7996 10.6851 22.4442C11.3663 24.0887 12.5198 25.4943 13.9999 26.4832C15.4799 27.4722 17.22 28 19 28C21.387 28 23.6761 27.0518 25.364 25.364C27.0518 23.6761 28 21.387 28 19ZM11.8 19C11.8 17.576 12.2223 16.1839 13.0134 14.9999C13.8046 13.8159 14.9291 12.893 16.2447 12.3481C17.5603 11.8031 19.008 11.6605 20.4047 11.9383C21.8013 12.2162 23.0842 12.9019 24.0912 13.9088C25.0981 14.9158 25.7838 16.1987 26.0617 17.5954C26.3395 18.992 26.1969 20.4397 25.6519 21.7553C25.107 23.071 24.1841 24.1954 23.0001 24.9866C21.8161 25.7777 20.424 26.2 19 26.2C17.0904 26.2 15.2591 25.4414 13.9088 24.0912C12.5586 22.7409 11.8 20.9096 11.8 19Z" fill="#323759"/>
<defs>
<filter id="filter0_d_2268_5694" x="0.62963" y="0.62963" width="39.1111" height="39.1111" filterUnits="userSpaceOnUse" color-interpolation-filters="sRGB">
<feFlood flood-opacity="0" result="BackgroundImageFix"/>
<feColorMatrix in="SourceAlpha" type="matrix" values="0 0 0 0 0 0 0 0 0 0 0 0 0 0 0 0 0 0 127 0" result="hardAlpha"/>
<feOffset dx="1.18519" dy="1.18519"/>
<feGaussianBlur stdDeviation="1.77778"/>
<feColorMatrix type="matrix" values="0 0 0 0 0 0 0 0 0 0 0 0 0 0 0 0 0 0 0.15 0"/>
<feBlend mode="normal" in2="BackgroundImageFix" result="effect1_dropShadow_2268_5694"/>
<feBlend mode="normal" in="SourceGraphic" in2="effect1_dropShadow_2268_5694" result="shape"/>
</filter>
</defs>
</svg>
