<svg width="40" height="40" viewBox="0 0 40 40" fill="none" xmlns="http://www.w3.org/2000/svg" id="svg296860410_16526">
  <rect width="40" height="40" rx="20" fill="url(#svg296860410_16526_paint0_linear_27_1262)"></rect>
  <g filter="url(#svg296860410_16526_filter0_f_27_1262)">
    <path
      d="M18.7632 28.1781C15.1833 28.1781 13.5842 26.4219 13.5842 25.104C13.5842 24.4251 14.0834 23.9539 14.7704 23.9539C16.3036 23.9539 15.9032 26.1521 18.7632 26.1521C20.2235 26.1521 21.0323 25.3578 21.0323 24.5449C21.0323 24.0559 20.793 23.5155 19.8275 23.2768L16.6453 22.4825C14.0826 21.84 13.6172 20.4538 13.6172 19.1537C13.6172 16.4496 16.163 15.4344 18.555 15.4344C20.7538 15.4344 23.354 16.6529 23.354 18.2733C23.354 18.9691 22.7417 19.3738 22.061 19.3738C20.7538 19.3738 20.995 17.566 18.3556 17.566C17.0484 17.566 16.3161 18.1553 16.3161 19.001C16.3161 19.8468 17.3421 20.1175 18.2355 20.3207L20.5821 20.8416C23.1546 21.4176 23.8069 22.9236 23.8069 24.3417C23.8069 26.539 22.1144 28.179 18.7151 28.179L18.7632 28.1781ZM28.5783 23.8465L28.5525 23.9663L28.5133 23.7533C28.5267 23.7933 28.5525 23.819 28.5659 23.8598C28.6726 23.2608 28.7269 22.6502 28.7269 22.0388C28.7269 20.6819 28.4591 19.3658 27.9278 18.1163C27.4215 16.92 26.6865 15.8426 25.7681 14.925C24.8347 14.0083 23.7686 13.2779 22.5691 12.7721C21.3963 12.2121 20.0766 11.9467 18.7178 11.9467C18.0771 11.9467 17.4329 12.0089 16.8109 12.1278L16.9167 12.181L16.7041 12.1517L16.81 12.1295C15.9521 11.6716 14.9902 11.4285 14.0131 11.4285C12.4212 11.4285 10.9253 12.0479 9.79879 13.1741C8.67223 14.2994 8.052 15.7974 8.052 17.3886C8.052 18.4029 8.31184 19.3986 8.80304 20.2799L8.82084 20.1698L8.85732 20.3819L8.80393 20.2799C8.70249 20.8523 8.65088 21.4326 8.65088 22.0148C8.65088 23.3726 8.91783 24.6922 9.43751 25.9338C9.94295 27.1425 10.6637 28.2198 11.5972 29.1366C12.5173 30.0684 13.5967 30.7845 14.7962 31.3037C16.0367 31.8362 17.3563 32.1006 18.7151 32.1006C19.3016 32.1006 19.9022 32.0474 20.4744 31.9418L20.3685 31.8868L20.5821 31.9276L20.4619 31.9542C21.3536 32.4592 22.3538 32.7272 23.3931 32.7272C24.9797 32.7272 26.4711 32.1148 27.6048 30.9851C28.7251 29.8678 29.3507 28.3663 29.3507 26.7706C29.3507 25.7607 29.0846 24.7632 28.5917 23.8722"
      fill="#006184"></path>
  </g>
  <mask id="svg296860410_16526_path-3-inside-1_27_1262" fill="white">
    <path
      d="M20.3215 26.1002C16.7417 26.1002 15.1426 24.344 15.1426 23.0261C15.1426 22.3472 15.6418 21.876 16.3288 21.876C17.862 21.876 17.4616 24.0742 20.3215 24.0742C21.7818 24.0742 22.5907 23.2799 22.5907 22.467C22.5907 21.9781 22.3513 21.4376 21.3858 21.1989L18.2037 20.4046C15.6409 19.7621 15.1755 18.3759 15.1755 17.0758C15.1755 14.3718 17.7214 13.3565 20.1133 13.3565C22.3122 13.3565 24.9123 14.575 24.9123 16.1955C24.9123 16.8912 24.3001 17.2959 23.6194 17.2959C22.3122 17.2959 22.5533 15.4882 19.914 15.4882C18.6068 15.4882 17.8744 16.0774 17.8744 16.9232C17.8744 17.7689 18.9004 18.0396 19.7939 18.2428L22.1404 18.7637C24.713 19.3397 25.3653 20.8457 25.3653 22.2638C25.3653 24.4611 23.6727 26.1011 20.2735 26.1011L20.3215 26.1002ZM30.1367 21.7686L30.1109 21.8884L30.0717 21.6754C30.085 21.7154 30.1109 21.7411 30.1242 21.7819C30.231 21.1829 30.2853 20.5723 30.2853 19.9609C30.2853 18.604 30.0174 17.2879 29.4862 16.0384C28.9798 14.8421 28.2448 13.7647 27.3265 12.8471C26.393 11.9304 25.327 11.2 24.1275 10.6942C22.9546 10.1342 21.635 9.86885 20.2762 9.86885C19.6355 9.86885 18.9912 9.93098 18.3692 10.0499L18.4751 10.1031L18.2624 10.0739L18.3683 10.0517C17.5105 9.59375 16.5486 9.35059 15.5715 9.35059C13.9795 9.35059 12.4837 9.97002 11.3571 11.0962C10.2306 12.2215 9.61035 13.7195 9.61035 15.3107C9.61035 16.325 9.87019 17.3207 10.3614 18.202L10.3792 18.0919L10.4157 18.304L10.3623 18.202C10.2608 18.7744 10.2092 19.3548 10.2092 19.9369C10.2092 21.2947 10.4762 22.6144 10.9959 23.8559C11.5013 25.0646 12.2221 26.142 13.1555 27.0587C14.0756 27.9905 15.155 28.7067 16.3546 29.2258C17.595 29.7583 18.9147 30.0228 20.2735 30.0228C20.8599 30.0228 21.4606 29.9695 22.0327 29.8639L21.9268 29.8089L22.1404 29.8497L22.0203 29.8763C22.9119 30.3813 23.9121 30.6493 24.9515 30.6493C26.5381 30.6493 28.0295 30.037 29.1632 28.9072C30.2835 27.7899 30.9091 26.2884 30.9091 24.6928C30.9091 23.6828 30.643 22.6853 30.15 21.7944">
    </path>
  </mask>
  <path
    d="M20.3215 26.1002C16.7417 26.1002 15.1426 24.344 15.1426 23.0261C15.1426 22.3472 15.6418 21.876 16.3288 21.876C17.862 21.876 17.4616 24.0742 20.3215 24.0742C21.7818 24.0742 22.5907 23.2799 22.5907 22.467C22.5907 21.9781 22.3513 21.4376 21.3858 21.1989L18.2037 20.4046C15.6409 19.7621 15.1755 18.3759 15.1755 17.0758C15.1755 14.3718 17.7214 13.3565 20.1133 13.3565C22.3122 13.3565 24.9123 14.575 24.9123 16.1955C24.9123 16.8912 24.3001 17.2959 23.6194 17.2959C22.3122 17.2959 22.5533 15.4882 19.914 15.4882C18.6068 15.4882 17.8744 16.0774 17.8744 16.9232C17.8744 17.7689 18.9004 18.0396 19.7939 18.2428L22.1404 18.7637C24.713 19.3397 25.3653 20.8457 25.3653 22.2638C25.3653 24.4611 23.6727 26.1011 20.2735 26.1011L20.3215 26.1002ZM30.1367 21.7686L30.1109 21.8884L30.0717 21.6754C30.085 21.7154 30.1109 21.7411 30.1242 21.7819C30.231 21.1829 30.2853 20.5723 30.2853 19.9609C30.2853 18.604 30.0174 17.2879 29.4862 16.0384C28.9798 14.8421 28.2448 13.7647 27.3265 12.8471C26.393 11.9304 25.327 11.2 24.1275 10.6942C22.9546 10.1342 21.635 9.86885 20.2762 9.86885C19.6355 9.86885 18.9912 9.93098 18.3692 10.0499L18.4751 10.1031L18.2624 10.0739L18.3683 10.0517C17.5105 9.59375 16.5486 9.35059 15.5715 9.35059C13.9795 9.35059 12.4837 9.97002 11.3571 11.0962C10.2306 12.2215 9.61035 13.7195 9.61035 15.3107C9.61035 16.325 9.87019 17.3207 10.3614 18.202L10.3792 18.0919L10.4157 18.304L10.3623 18.202C10.2608 18.7744 10.2092 19.3548 10.2092 19.9369C10.2092 21.2947 10.4762 22.6144 10.9959 23.8559C11.5013 25.0646 12.2221 26.142 13.1555 27.0587C14.0756 27.9905 15.155 28.7067 16.3546 29.2258C17.595 29.7583 18.9147 30.0228 20.2735 30.0228C20.8599 30.0228 21.4606 29.9695 22.0327 29.8639L21.9268 29.8089L22.1404 29.8497L22.0203 29.8763C22.9119 30.3813 23.9121 30.6493 24.9515 30.6493C26.5381 30.6493 28.0295 30.037 29.1632 28.9072C30.2835 27.7899 30.9091 26.2884 30.9091 24.6928C30.9091 23.6828 30.643 22.6853 30.15 21.7944"
    fill="white" fill-opacity="0.9"></path>
  <path
    d="M20.3215 26.1002L20.3308 26.6002L20.3215 25.6002V26.1002ZM21.3858 21.1989L21.2647 21.684L21.2658 21.6843L21.3858 21.1989ZM18.2037 20.4046L18.0821 20.8896L18.0826 20.8897L18.2037 20.4046ZM19.7939 18.2428L19.683 18.7303L19.6855 18.7309L19.7939 18.2428ZM22.1404 18.7637L22.2497 18.2758L22.2488 18.2756L22.1404 18.7637ZM20.2735 26.1011L20.2643 25.6012L20.2735 26.6011V26.1011ZM30.1109 21.8884L29.6191 21.9788L30.5996 21.9937L30.1109 21.8884ZM30.0717 21.6754L30.5459 21.5169L29.5799 21.7658L30.0717 21.6754ZM30.1242 21.7819L29.649 21.9373L30.6164 21.8697L30.1242 21.7819ZM29.4862 16.0384L29.0257 16.2333L29.026 16.234L29.4862 16.0384ZM27.3265 12.8471L27.6799 12.4934L27.6768 12.4904L27.3265 12.8471ZM24.1275 10.6942L23.912 11.1454L23.9225 11.1504L23.9332 11.1549L24.1275 10.6942ZM18.3692 10.0499L18.2753 9.55879L16.8293 9.83524L18.1446 10.4966L18.3692 10.0499ZM18.4751 10.1031L18.4069 10.5985L18.6997 9.65643L18.4751 10.1031ZM18.2624 10.0739L18.1599 9.58448L18.1942 10.5692L18.2624 10.0739ZM18.3683 10.0517L18.4708 10.541L19.818 10.2588L18.6038 9.61058L18.3683 10.0517ZM11.3571 11.0962L11.7105 11.4499L11.7106 11.4498L11.3571 11.0962ZM10.3614 18.202L9.92465 18.4454L10.6252 19.7023L10.855 18.2818L10.3614 18.202ZM10.3792 18.0919L10.872 18.0072L9.8856 18.0121L10.3792 18.0919ZM10.4157 18.304L9.97264 18.5358L10.9084 18.2193L10.4157 18.304ZM10.3623 18.202L10.8053 17.9702L10.1258 16.6713L9.86995 18.1147L10.3623 18.202ZM10.9959 23.8559L11.4571 23.663L11.4571 23.6628L10.9959 23.8559ZM13.1555 27.0587L13.5114 26.7073L13.5059 26.7019L13.1555 27.0587ZM16.3546 29.2258L16.156 29.6847L16.1573 29.6853L16.3546 29.2258ZM22.0327 29.8639L22.1235 30.3556L23.555 30.0914L22.2633 29.4202L22.0327 29.8639ZM21.9268 29.8089L22.0207 29.3178L21.6963 30.2526L21.9268 29.8089ZM22.1404 29.8497L22.2486 30.3379L22.2343 29.3586L22.1404 29.8497ZM22.0203 29.8763L21.9121 29.3882L20.6411 29.6698L21.7739 30.3114L22.0203 29.8763ZM29.1632 28.9072L29.5161 29.2614L29.5162 29.2613L29.1632 28.9072ZM20.3215 25.6002C16.8488 25.6002 15.6426 23.9248 15.6426 23.0261H14.6426C14.6426 24.7631 16.6345 26.6002 20.3215 26.6002V25.6002ZM15.6426 23.0261C15.6426 22.6414 15.8995 22.376 16.3288 22.376V21.376C15.3841 21.376 14.6426 22.053 14.6426 23.0261H15.6426ZM16.3288 22.376C16.5664 22.376 16.7117 22.4514 16.8577 22.5865C16.94 22.6626 17.0222 22.7583 17.1193 22.8813C17.2059 22.991 17.3275 23.1532 17.4404 23.2915C17.685 23.5908 18.0005 23.9222 18.4725 24.1725C18.9456 24.4234 19.5402 24.5742 20.3215 24.5742V23.5742C19.6729 23.5742 19.245 23.4502 18.941 23.289C18.6357 23.1271 18.4193 22.909 18.2148 22.6587C18.1032 22.5222 18.021 22.4097 17.9042 22.2617C17.798 22.1271 17.6773 21.9824 17.5368 21.8524C17.2373 21.5754 16.8578 21.376 16.3288 21.376V22.376ZM20.3215 24.5742C21.9353 24.5742 23.0907 23.6645 23.0907 22.467H22.0907C22.0907 22.8954 21.6283 23.5742 20.3215 23.5742V24.5742ZM23.0907 22.467C23.0907 22.1399 23.0094 21.7632 22.741 21.4271C22.4739 21.0926 22.0638 20.8514 21.5058 20.7135L21.2658 21.6843C21.6734 21.785 21.8657 21.9335 21.9596 22.0511C22.0523 22.1672 22.0907 22.3052 22.0907 22.467H23.0907ZM21.5069 20.7138L18.3248 19.9195L18.0826 20.8897L21.2647 21.684L21.5069 20.7138ZM18.3253 19.9196C17.1177 19.6169 16.4777 19.158 16.1303 18.6891C15.782 18.219 15.6755 17.6689 15.6755 17.0758H14.6755C14.6755 17.7828 14.8018 18.5758 15.3268 19.2845C15.8528 19.9944 16.7269 20.5499 18.0821 20.8896L18.3253 19.9196ZM15.6755 17.0758C15.6755 15.9121 16.2093 15.1343 17.0148 14.6247C17.8447 14.0996 18.9764 13.8565 20.1133 13.8565V12.8565C18.8583 12.8565 17.5211 13.121 16.4801 13.7796C15.4147 14.4536 14.6755 15.5354 14.6755 17.0758H15.6755ZM20.1133 13.8565C21.1312 13.8565 22.2479 14.1411 23.097 14.6067C23.9745 15.0879 24.4123 15.6677 24.4123 16.1955H25.4123C25.4123 15.1027 24.5501 14.2631 23.5778 13.7299C22.5771 13.1811 21.2943 12.8565 20.1133 12.8565V13.8565ZM24.4123 16.1955C24.4123 16.3806 24.3372 16.5147 24.2112 16.6142C24.075 16.7218 23.8661 16.7959 23.6194 16.7959V17.7959C24.0534 17.7959 24.4909 17.6676 24.8311 17.3989C25.1813 17.1222 25.4123 16.7061 25.4123 16.1955H24.4123ZM23.6194 16.7959C23.4315 16.7959 23.3115 16.7393 23.181 16.63C23.1071 16.5682 23.0315 16.4902 22.9387 16.388C22.853 16.2934 22.7415 16.1653 22.6272 16.0461C22.3863 15.7946 22.078 15.5214 21.6313 15.3163C21.1856 15.1115 20.6324 14.9882 19.914 14.9882V15.9882C20.5153 15.9882 20.9216 16.0907 21.2139 16.225C21.5052 16.3588 21.7132 16.5375 21.9052 16.7379C22.0075 16.8447 22.0917 16.9425 22.1981 17.0599C22.2975 17.1694 22.4106 17.2892 22.5391 17.3968C22.8135 17.6265 23.1537 17.7959 23.6194 17.7959V16.7959ZM19.914 14.9882C19.1926 14.9882 18.5677 15.1499 18.1091 15.4847C17.6354 15.8307 17.3744 16.3386 17.3744 16.9232H18.3744C18.3744 16.662 18.4797 16.4524 18.6989 16.2923C18.9334 16.1211 19.3282 15.9882 19.914 15.9882V14.9882ZM17.3744 16.9232C17.3744 17.6031 17.8085 18.0193 18.2616 18.2639C18.699 18.5001 19.2452 18.6308 19.683 18.7303L19.9048 17.7552C19.4491 17.6516 19.0356 17.5453 18.7367 17.384C18.4534 17.231 18.3744 17.089 18.3744 16.9232H17.3744ZM19.6855 18.7309L22.0321 19.2518L22.2488 18.2756L19.9022 17.7547L19.6855 18.7309ZM22.0312 19.2516C23.2347 19.5211 23.9261 19.9926 24.3222 20.5041C24.72 21.0177 24.8653 21.6299 24.8653 22.2638H25.8653C25.8653 21.4796 25.6844 20.6297 25.1129 19.8918C24.5397 19.1518 23.6187 18.5823 22.2497 18.2758L22.0312 19.2516ZM24.8653 22.2638C24.8653 23.2238 24.5011 24.0352 23.78 24.6174C23.0476 25.2088 21.8986 25.6011 20.2735 25.6011V26.6011C22.0477 26.6011 23.4446 26.1735 24.4082 25.3955C25.3832 24.6083 25.8653 23.5011 25.8653 22.2638H24.8653ZM20.2827 26.601L20.3308 26.6002L20.3123 25.6003L20.2643 25.6012L20.2827 26.601ZM29.6479 21.6633L29.6221 21.7831L30.5996 21.9937L30.6255 21.8739L29.6479 21.6633ZM30.6026 21.798L30.5635 21.585L29.5799 21.7658L29.6191 21.9788L30.6026 21.798ZM29.5975 21.8339C29.6112 21.8749 29.6269 21.9085 29.64 21.9338C29.652 21.9569 29.6643 21.9773 29.6677 21.9831C29.6793 22.0027 29.6615 21.9758 29.649 21.9373L30.5994 21.6265C30.5735 21.5473 30.5361 21.487 30.5282 21.4736C30.5149 21.4512 30.5332 21.4788 30.5459 21.5169L29.5975 21.8339ZM30.6164 21.8697C30.7284 21.2418 30.7853 20.6018 30.7853 19.9609H29.7853C29.7853 20.5428 29.7336 21.124 29.632 21.6942L30.6164 21.8697ZM30.7853 19.9609C30.7853 18.5368 30.5039 17.1542 29.9463 15.8427L29.026 16.234C29.531 17.4216 29.7853 18.6712 29.7853 19.9609H30.7853ZM29.9466 15.8435C29.4144 14.5861 28.6425 13.4552 27.6799 12.4934L26.9731 13.2008C27.8472 14.0743 28.5452 15.0981 29.0257 16.2333L29.9466 15.8435ZM27.6768 12.4904C26.7017 11.5327 25.5835 10.7656 24.3217 10.2335L23.9332 11.1549C25.0705 11.6345 26.0844 12.3281 26.9762 13.2039L27.6768 12.4904ZM24.3429 10.243C23.0939 9.64664 21.699 9.36885 20.2762 9.36885V10.3689C21.5709 10.3689 22.8153 10.6218 23.912 11.1454L24.3429 10.243ZM20.2762 9.36885C19.6036 9.36885 18.9279 9.43403 18.2753 9.55879L18.4631 10.541C19.0545 10.4279 19.6674 10.3689 20.2762 10.3689V9.36885ZM18.1446 10.4966L18.2505 10.5498L18.6997 9.65643L18.5938 9.60319L18.1446 10.4966ZM18.5433 9.60781L18.3306 9.57853L18.1942 10.5692L18.4069 10.5985L18.5433 9.60781ZM18.365 10.5632L18.4708 10.541L18.2658 9.56229L18.1599 9.58448L18.365 10.5632ZM18.6038 9.61058C17.6741 9.11429 16.6313 8.85059 15.5715 8.85059V9.85059C16.4658 9.85059 17.3469 10.0732 18.1329 10.4928L18.6038 9.61058ZM15.5715 8.85059C13.8469 8.85059 12.2239 9.52271 11.0036 10.7426L11.7106 11.4498C12.7435 10.4173 14.1122 9.85059 15.5715 9.85059V8.85059ZM11.0038 10.7424C9.78326 11.9616 9.11035 13.5869 9.11035 15.3107H10.1104C10.1104 13.8521 10.6779 12.4814 11.7105 11.4499L11.0038 10.7424ZM9.11035 15.3107C9.11035 16.4104 9.39203 17.4899 9.92465 18.4454L10.7981 17.9585C10.3484 17.1516 10.1104 16.2397 10.1104 15.3107H9.11035ZM10.855 18.2818L10.8728 18.1718L9.8856 18.0121L9.8678 18.1221L10.855 18.2818ZM9.88642 18.1767L9.92291 18.3888L10.9084 18.2193L10.872 18.0072L9.88642 18.1767ZM10.8587 18.0723L10.8053 17.9702L9.91925 18.4337L9.97264 18.5358L10.8587 18.0723ZM9.86995 18.1147C9.76346 18.7156 9.70922 19.3252 9.70922 19.9369H10.7092C10.7092 19.3843 10.7582 18.8331 10.8546 18.2892L9.86995 18.1147ZM9.70922 19.9369C9.70922 21.3612 9.98943 22.7464 10.5346 24.0489L11.4571 23.6628C10.9629 22.4823 10.7092 21.2283 10.7092 19.9369H9.70922ZM10.5346 24.0488C11.0649 25.3171 11.8228 26.4506 12.8052 27.4154L13.5059 26.7019C12.6213 25.8333 11.9377 24.8121 11.4571 23.663L10.5346 24.0488ZM12.7998 27.41C13.7682 28.3908 14.9021 29.142 16.156 29.6847L16.5532 28.767C15.4079 28.2713 14.3831 27.5902 13.5113 26.7074L12.7998 27.41ZM16.1573 29.6853C17.4619 30.2453 18.8488 30.5228 20.2735 30.5228V29.5228C18.9806 29.5228 17.7282 29.2713 16.5518 28.7664L16.1573 29.6853ZM20.2735 30.5228C20.8893 30.5228 21.5203 30.4669 22.1235 30.3556L21.942 29.3722C21.4008 29.4721 20.8306 29.5228 20.2735 29.5228V30.5228ZM22.2633 29.4202L22.1574 29.3652L21.6963 30.2526L21.8022 30.3076L22.2633 29.4202ZM21.833 30.3L22.0465 30.3408L22.2343 29.3586L22.0207 29.3178L21.833 30.3ZM22.0322 29.3615L21.9121 29.3882L22.1285 30.3645L22.2486 30.3379L22.0322 29.3615ZM21.7739 30.3114C22.7399 30.8585 23.8249 31.1493 24.9515 31.1493V30.1493C23.9993 30.1493 23.0839 29.9041 22.2667 29.4412L21.7739 30.3114ZM24.9515 31.1493C26.6702 31.1493 28.2885 30.4847 29.5161 29.2614L28.8102 28.5531C27.7704 29.5892 26.406 30.1493 24.9515 30.1493V31.1493ZM29.5162 29.2613C30.7307 28.0501 31.4091 26.4211 31.4091 24.6928H30.4091C30.4091 26.1556 29.8363 27.5298 28.8101 28.5532L29.5162 29.2613ZM31.4091 24.6928C31.4091 23.595 31.1199 22.5146 30.5875 21.5523L29.7125 22.0364C30.166 22.8561 30.4091 23.7707 30.4091 24.6928H31.4091Z"
    fill="url(#svg296860410_16526_paint1_linear_27_1262)" mask="url(#svg296860410_16526_path-3-inside-1_27_1262)">
  </path>
  <defs>
    <filter id="svg296860410_16526_filter0_f_27_1262" x="-6.948" y="-3.57153" width="51.2986" height="51.2986"
      filterUnits="userSpaceOnUse" color-interpolation-filters="sRGB">
      <feFlood flood-opacity="0" result="BackgroundImageFix"></feFlood>
      <feBlend mode="normal" in="SourceGraphic" in2="BackgroundImageFix" result="shape"></feBlend>
      <feGaussianBlur stdDeviation="7.5" result="effect1_foregroundBlur_27_1262"></feGaussianBlur>
    </filter>
    <linearGradient id="svg296860410_16526_paint0_linear_27_1262" x1="19.2208" y1="38.961" x2="20" y2="2.20779"
      gradientUnits="userSpaceOnUse">
      <stop stop-color="#0076A2"></stop>
      <stop offset="1" stop-color="#7AD7F9"></stop>
    </linearGradient>
    <linearGradient id="svg296860410_16526_paint1_linear_27_1262" x1="20.2597" y1="9.35059" x2="20.2597" y2="30.6493"
      gradientUnits="userSpaceOnUse">
      <stop stop-color="white"></stop>
      <stop offset="1" stop-color="white" stop-opacity="0"></stop>
    </linearGradient>
  </defs>
</svg>