<svg width="23" height="23" viewBox="0 0 23 23" fill="none" xmlns="http://www.w3.org/2000/svg" id="svg1955291880_14340">
  <mask id="svg1955291880_14340_path-1-inside-1_62_178" fill="white">
    <path fill-rule="evenodd" clip-rule="evenodd"
      d="M16.6368 13.6978C16.3589 13.5593 14.9926 12.8903 14.7378 12.7979C14.4831 12.7056 14.2979 12.6595 14.1126 12.9363C13.9273 13.2132 13.3947 13.8362 13.2326 14.0208C13.0705 14.2054 12.9084 14.2286 12.6305 14.09C12.3526 13.9516 11.4572 13.6596 10.3957 12.7173C9.56958 11.9839 9.0118 11.0782 8.84972 10.8013C8.68759 10.5244 8.8324 10.3748 8.97153 10.2369C9.09661 10.1129 9.24948 9.91383 9.3884 9.75231C9.52739 9.59087 9.57368 9.47542 9.66631 9.29093C9.75893 9.10631 9.71264 8.94483 9.6431 8.80641C9.57368 8.66799 9.0179 7.30661 8.78633 6.75275C8.56072 6.21353 8.33163 6.28656 8.16105 6.278C7.99914 6.27001 7.81363 6.26832 7.62843 6.26832C7.44319 6.26832 7.14206 6.33753 6.88732 6.61433C6.63262 6.89122 5.91471 7.5604 5.91471 8.92165C5.91471 10.2831 6.91049 11.5981 7.04944 11.7827C7.1884 11.9674 9.00905 14.7609 11.7969 15.9589C12.4599 16.2439 12.9776 16.414 13.3811 16.5415C14.0468 16.752 14.6527 16.7223 15.1315 16.6511C15.6655 16.5717 16.7757 15.9821 17.0073 15.3361C17.2389 14.6899 17.2389 14.1362 17.1694 14.0208C17.0999 13.9054 16.9147 13.8362 16.6368 13.6978V13.6978ZM11.5661 20.5881H11.5624C9.90356 20.5875 8.27662 20.1439 6.8573 19.3057L6.51971 19.1064L3.02098 20.0198L3.95485 16.6248L3.73509 16.2767C2.80969 14.8119 2.32092 13.119 2.32167 11.3806C2.32372 6.30809 6.47071 2.18128 11.5698 2.18128C14.0389 2.18211 16.36 3.14033 18.1054 4.87933C19.8507 6.61828 20.8113 8.92977 20.8104 11.388C20.8083 16.4609 16.6613 20.5881 11.5661 20.5881V20.5881ZM19.4337 3.55794C17.3338 1.46573 14.5413 0.312983 11.566 0.311768C5.43563 0.311768 0.446263 5.27697 0.443776 11.3799C0.442991 13.3308 0.955099 15.2349 1.92845 16.9136L0.350586 22.6494L6.24655 21.1102C7.87109 21.9921 9.70012 22.4569 11.5616 22.4575H11.5662C17.6959 22.4575 22.6857 17.4918 22.6882 11.3887C22.6894 8.43114 21.5335 5.65016 19.4337 3.55794">
    </path>
  </mask>
  <path fill-rule="evenodd" clip-rule="evenodd"
    d="M16.6368 13.6978C16.3589 13.5593 14.9926 12.8903 14.7378 12.7979C14.4831 12.7056 14.2979 12.6595 14.1126 12.9363C13.9273 13.2132 13.3947 13.8362 13.2326 14.0208C13.0705 14.2054 12.9084 14.2286 12.6305 14.09C12.3526 13.9516 11.4572 13.6596 10.3957 12.7173C9.56958 11.9839 9.0118 11.0782 8.84972 10.8013C8.68759 10.5244 8.8324 10.3748 8.97153 10.2369C9.09661 10.1129 9.24948 9.91383 9.3884 9.75231C9.52739 9.59087 9.57368 9.47542 9.66631 9.29093C9.75893 9.10631 9.71264 8.94483 9.6431 8.80641C9.57368 8.66799 9.0179 7.30661 8.78633 6.75275C8.56072 6.21353 8.33163 6.28656 8.16105 6.278C7.99914 6.27001 7.81363 6.26832 7.62843 6.26832C7.44319 6.26832 7.14206 6.33753 6.88732 6.61433C6.63262 6.89122 5.91471 7.5604 5.91471 8.92165C5.91471 10.2831 6.91049 11.5981 7.04944 11.7827C7.1884 11.9674 9.00905 14.7609 11.7969 15.9589C12.4599 16.2439 12.9776 16.414 13.3811 16.5415C14.0468 16.752 14.6527 16.7223 15.1315 16.6511C15.6655 16.5717 16.7757 15.9821 17.0073 15.3361C17.2389 14.6899 17.2389 14.1362 17.1694 14.0208C17.0999 13.9054 16.9147 13.8362 16.6368 13.6978V13.6978ZM11.5661 20.5881H11.5624C9.90356 20.5875 8.27662 20.1439 6.8573 19.3057L6.51971 19.1064L3.02098 20.0198L3.95485 16.6248L3.73509 16.2767C2.80969 14.8119 2.32092 13.119 2.32167 11.3806C2.32372 6.30809 6.47071 2.18128 11.5698 2.18128C14.0389 2.18211 16.36 3.14033 18.1054 4.87933C19.8507 6.61828 20.8113 8.92977 20.8104 11.388C20.8083 16.4609 16.6613 20.5881 11.5661 20.5881V20.5881ZM19.4337 3.55794C17.3338 1.46573 14.5413 0.312983 11.566 0.311768C5.43563 0.311768 0.446263 5.27697 0.443776 11.3799C0.442991 13.3308 0.955099 15.2349 1.92845 16.9136L0.350586 22.6494L6.24655 21.1102C7.87109 21.9921 9.70012 22.4569 11.5616 22.4575H11.5662C17.6959 22.4575 22.6857 17.4918 22.6882 11.3887C22.6894 8.43114 21.5335 5.65016 19.4337 3.55794"
    fill="white" fill-opacity="0.9"></path>
  <path
    d="M14.7378 12.7979L14.9083 12.3279L14.9082 12.3278L14.7378 12.7979ZM14.1126 12.9363L13.6971 12.6582L13.697 12.6583L14.1126 12.9363ZM13.2326 14.0208L12.8569 13.6908L12.8569 13.6909L13.2326 14.0208ZM12.6305 14.09L12.8537 13.6425L12.8534 13.6424L12.6305 14.09ZM10.3957 12.7173L10.7276 12.3433L10.7276 12.3433L10.3957 12.7173ZM8.84972 10.8013L9.28123 10.5487L9.2812 10.5487L8.84972 10.8013ZM8.97153 10.2369L8.61963 9.88167L8.61955 9.88175L8.97153 10.2369ZM9.3884 9.75231L9.0095 9.42606L9.00931 9.42628L9.3884 9.75231ZM9.66631 9.29093L10.1132 9.51527L10.1132 9.51514L9.66631 9.29093ZM9.6431 8.80641L9.19614 9.03054L9.19631 9.03088L9.6431 8.80641ZM8.78633 6.75275L9.24763 6.55988L9.24758 6.55977L8.78633 6.75275ZM8.16105 6.278L8.18608 5.77863L8.18569 5.77861L8.16105 6.278ZM6.88732 6.61433L6.51941 6.27574L6.51933 6.27583L6.88732 6.61433ZM11.7969 15.9589L11.9944 15.4995L11.9943 15.4995L11.7969 15.9589ZM13.3811 16.5415L13.5319 16.0647L13.5317 16.0647L13.3811 16.5415ZM15.1315 16.6511L15.058 16.1565L15.0579 16.1565L15.1315 16.6511ZM17.0073 15.3361L17.478 15.5048L17.478 15.5047L17.0073 15.3361ZM11.5624 20.5881L11.5622 21.0881H11.5624V20.5881ZM6.8573 19.3057L6.60304 19.7363L6.60304 19.7363L6.8573 19.3057ZM6.51971 19.1064L6.77397 18.6758L6.59477 18.57L6.3934 18.6226L6.51971 19.1064ZM3.02098 20.0198L2.53889 19.8872L2.30915 20.7224L3.14729 20.5036L3.02098 20.0198ZM3.95485 16.6248L4.43694 16.7574L4.49549 16.5446L4.37764 16.3579L3.95485 16.6248ZM3.73509 16.2767L4.15789 16.0098L4.1578 16.0096L3.73509 16.2767ZM2.32167 11.3806L2.82167 11.3808V11.3808L2.32167 11.3806ZM11.5698 2.18128L11.57 1.68128H11.5698V2.18128ZM18.1054 4.87933L18.4583 4.52513L18.1054 4.87933ZM20.8104 11.388L21.3104 11.3882V11.3882L20.8104 11.388ZM11.566 0.311768L11.5662 -0.188232H11.566V0.311768ZM0.443776 11.3799L-0.0562241 11.3797L-0.0562241 11.3797L0.443776 11.3799ZM1.92845 16.9136L2.41054 17.0462L2.46613 16.8441L2.36099 16.6628L1.92845 16.9136ZM0.350586 22.6494L-0.131506 22.5168L-0.361264 23.352L0.476885 23.1332L0.350586 22.6494ZM6.24655 21.1102L6.48509 20.6708L6.31143 20.5765L6.12025 20.6264L6.24655 21.1102ZM11.5616 22.4575L11.5614 22.9575H11.5616V22.4575ZM22.6882 11.3887L23.1882 11.389V11.3889L22.6882 11.3887ZM16.8597 13.2502C16.7183 13.1798 16.3051 12.9769 15.8952 12.7799C15.501 12.5905 15.0657 12.385 14.9083 12.3279L14.5673 13.268C14.6647 13.3033 15.04 13.4784 15.4621 13.6813C15.8684 13.8765 16.2773 14.0773 16.4139 14.1453L16.8597 13.2502ZM14.9082 12.3278C14.7957 12.2871 14.5779 12.2051 14.3426 12.2319C14.0523 12.265 13.8438 12.439 13.6971 12.6582L14.5281 13.2145C14.5505 13.1811 14.556 13.1829 14.5393 13.1947C14.5303 13.2009 14.5175 13.2082 14.5011 13.2144C14.4848 13.2206 14.4691 13.224 14.4558 13.2255C14.4309 13.2283 14.4232 13.2235 14.446 13.2288C14.4568 13.2313 14.4718 13.2354 14.4928 13.2422C14.5139 13.2489 14.5379 13.2573 14.5675 13.268L14.9082 12.3278ZM13.697 12.6583C13.5336 12.9025 13.0248 13.4997 12.8569 13.6908L13.6083 14.3508C13.7646 14.1728 14.3211 13.5239 14.5281 13.2144L13.697 12.6583ZM12.8569 13.6909C12.8392 13.711 12.836 13.71 12.8478 13.7027C12.8542 13.6988 12.8639 13.6938 12.8765 13.6893C12.8893 13.6847 12.9024 13.6817 12.915 13.6802C12.9406 13.6771 12.9523 13.6816 12.9421 13.679C12.9303 13.676 12.9025 13.6669 12.8537 13.6425L12.4074 14.5375C12.5794 14.6232 12.7957 14.7019 13.035 14.673C13.2947 14.6416 13.4793 14.4977 13.6083 14.3507L12.8569 13.6909ZM12.8534 13.6424C12.5266 13.4797 11.7243 13.2281 10.7276 12.3433L10.0637 13.0912C11.19 14.0911 12.1786 14.4235 12.4077 14.5376L12.8534 13.6424ZM10.7276 12.3433C9.96093 11.6627 9.43489 10.8112 9.28123 10.5487L8.41821 11.0539C8.5887 11.3452 9.17823 12.3051 10.0637 13.0912L10.7276 12.3433ZM9.2812 10.5487C9.26667 10.5239 9.27346 10.5265 9.27675 10.5523C9.2784 10.5652 9.27874 10.5808 9.27665 10.5979C9.27457 10.615 9.27054 10.6299 9.26607 10.6419C9.25766 10.6644 9.24966 10.6712 9.25938 10.6592C9.2639 10.6536 9.27092 10.6456 9.28201 10.6339C9.29338 10.622 9.30619 10.6091 9.32351 10.592L8.61955 9.88175C8.56348 9.93731 8.40724 10.0832 8.32923 10.2921C8.23321 10.5493 8.27718 10.813 8.41824 11.054L9.2812 10.5487ZM9.32343 10.5921C9.46597 10.4508 9.66075 10.2024 9.76748 10.0783L9.00931 9.42628C8.83822 9.62522 8.72725 9.77505 8.61963 9.88167L9.32343 10.5921ZM9.76729 10.0785C9.95607 9.85931 10.0321 9.67673 10.1132 9.51527L9.21946 9.06659C9.11528 9.27411 9.09872 9.32243 9.0095 9.42606L9.76729 10.0785ZM10.1132 9.51514C10.3086 9.12578 10.1908 8.78282 10.0899 8.58194L9.19631 9.03088C9.20642 9.051 9.21216 9.06504 9.21542 9.07466C9.21856 9.08396 9.2186 9.08689 9.21838 9.08483C9.21809 9.08213 9.21796 9.07666 9.21907 9.07031C9.2202 9.06387 9.2216 9.06233 9.2194 9.06672L10.1132 9.51514ZM10.09 8.58228C10.0909 8.58389 10.0883 8.57875 10.0808 8.56207C10.0741 8.54715 10.0655 8.52738 10.0548 8.5027C10.0335 8.45341 10.0059 8.38849 9.97343 8.31122C9.90854 8.1569 9.82579 7.95758 9.73756 7.74426C9.56181 7.31936 9.36388 6.83792 9.24763 6.55988L8.32502 6.94563C8.44035 7.22144 8.6361 7.69762 8.81349 8.12648C8.98364 8.53786 9.15072 8.93996 9.19614 9.03054L10.09 8.58228ZM9.24758 6.55977C9.11261 6.23716 8.93303 5.98954 8.66581 5.8639C8.5359 5.80282 8.41587 5.78579 8.32733 5.78077C8.28554 5.77839 8.24756 5.77863 8.22492 5.77875C8.19705 5.7789 8.19048 5.77885 8.18608 5.77863L8.13601 6.77738C8.17425 6.77929 8.21216 6.77883 8.23035 6.77873C8.25378 6.77861 8.26345 6.77875 8.27064 6.77916C8.28008 6.7797 8.26341 6.77972 8.2403 6.76885C8.18667 6.74364 8.23444 6.72912 8.32507 6.94573L9.24758 6.55977ZM8.18569 5.77861C8.01076 5.76998 7.81493 5.76832 7.62843 5.76832V6.76832C7.81234 6.76832 7.98753 6.77005 8.1364 6.7774L8.18569 5.77861ZM7.62843 5.76832C7.32933 5.76832 6.88508 5.87841 6.51941 6.27574L7.25522 6.95292C7.39904 6.79665 7.55704 6.76832 7.62843 6.76832V5.76832ZM6.51933 6.27583C6.26256 6.55497 5.41471 7.35101 5.41471 8.92165H6.41471C6.41471 7.76979 7.00268 7.22747 7.25531 6.95284L6.51933 6.27583ZM5.41471 8.92165C5.41471 9.71539 5.70195 10.4667 5.98458 11.0207C6.27083 11.5818 6.57528 11.9842 6.64995 12.0834L7.44893 11.4821C7.38465 11.3966 7.12173 11.0492 6.87536 10.5663C6.62536 10.0762 6.41471 9.48932 6.41471 8.92165H5.41471ZM6.64995 12.0834C6.64958 12.0829 6.65196 12.0861 6.65936 12.0966C6.6661 12.1061 6.67458 12.1182 6.68555 12.1338C6.70712 12.1646 6.73608 12.206 6.77147 12.2558C6.84242 12.3556 6.93919 12.4891 7.06023 12.6479C7.30206 12.965 7.64101 13.3828 8.06595 13.8337C8.9113 14.7307 10.1182 15.7817 11.5995 16.4183L11.9943 15.4995C9.35425 14.365 7.61458 11.7021 7.44893 11.4821L6.64995 12.0834ZM11.5994 16.4182C12.2842 16.7126 12.8197 16.8885 13.2306 17.0183L13.5317 16.0647C13.1355 15.9396 12.6355 15.7751 11.9944 15.4995L11.5994 16.4182ZM13.2304 17.0182C13.9952 17.2601 14.6848 17.223 15.2051 17.1456L15.0579 16.1565C14.6205 16.2216 14.0985 16.2439 13.5319 16.0647L13.2304 17.0182ZM15.205 17.1456C15.5653 17.0921 16.0435 16.888 16.4517 16.6276C16.8475 16.3751 17.3039 15.9903 17.478 15.5048L16.5367 15.1673C16.4791 15.3278 16.2646 15.5609 15.9139 15.7845C15.5756 16.0003 15.2317 16.1307 15.058 16.1565L15.205 17.1456ZM17.478 15.5047C17.6085 15.1406 17.6754 14.7984 17.6994 14.5226C17.7113 14.3852 17.7132 14.2567 17.7044 14.1449C17.6978 14.0607 17.6804 13.9002 17.5978 13.7629L16.741 14.2787C16.7237 14.2498 16.7146 14.2265 16.7106 14.2153C16.7062 14.2031 16.7045 14.1954 16.7042 14.194C16.7037 14.1919 16.7057 14.2007 16.7075 14.2233C16.711 14.268 16.7115 14.3399 16.7031 14.4362C16.6865 14.6276 16.6377 14.8854 16.5366 15.1674L17.478 15.5047ZM17.5978 13.7629C17.4893 13.5827 17.3204 13.4835 17.221 13.4292C17.1227 13.3754 16.9698 13.3051 16.8598 13.2502L16.4138 14.1453C16.487 14.1818 16.5557 14.2144 16.6102 14.2407C16.6678 14.2685 16.7089 14.2889 16.7415 14.3067C16.7571 14.3152 16.7682 14.3218 16.776 14.3267C16.7838 14.3317 16.7866 14.3339 16.7859 14.3334C16.7851 14.3328 16.7632 14.3155 16.741 14.2787L17.5978 13.7629ZM11.5661 20.0881H11.5624V21.0881H11.5661V20.0881ZM11.5626 20.0881C9.99256 20.0875 8.45343 19.6677 7.11156 18.8752L6.60304 19.7363C8.0998 20.6202 9.81455 21.0874 11.5622 21.0881L11.5626 20.0881ZM7.11157 18.8752L6.77397 18.6758L6.26544 19.5369L6.60304 19.7363L7.11157 18.8752ZM6.3934 18.6226L2.89468 19.536L3.14729 20.5036L6.64601 19.5901L6.3934 18.6226ZM3.50308 20.1524L4.43694 16.7574L3.47275 16.4922L2.53889 19.8872L3.50308 20.1524ZM4.37764 16.3579L4.15789 16.0098L3.31229 16.5436L3.53205 16.8917L4.37764 16.3579ZM4.1578 16.0096C3.2831 14.6251 2.82097 13.0249 2.82167 11.3808L1.82167 11.3804C1.82088 13.213 2.33628 14.9987 3.31238 16.5438L4.1578 16.0096ZM2.82167 11.3808C2.8236 6.5866 6.74453 2.68128 11.5698 2.68128V1.68128C6.1969 1.68128 1.82383 6.02959 1.82167 11.3804L2.82167 11.3808ZM11.5696 2.68128C13.9069 2.68206 16.101 3.58808 17.7525 5.23353L18.4583 4.52513C16.619 2.69258 14.171 1.68215 11.57 1.68128L11.5696 2.68128ZM17.7525 5.23353C19.4038 6.87885 20.3113 9.06289 20.3104 11.3878L21.3104 11.3882C21.3114 8.79664 20.2976 6.35772 18.4583 4.52513L17.7525 5.23353ZM20.3104 11.3878C20.3084 16.1826 16.3873 20.0881 11.5661 20.0881V21.0881C16.9353 21.0881 21.3081 16.7392 21.3104 11.3882L20.3104 11.3878ZM19.7866 3.20374C17.5928 1.01789 14.6733 -0.186963 11.5662 -0.188232L11.5658 0.811768C14.4094 0.812929 17.0749 1.91357 19.0808 3.91214L19.7866 3.20374ZM11.566 -0.188232C5.16167 -0.188232 -0.0536239 4.9986 -0.0562241 11.3797L0.943776 11.3801C0.946149 5.55533 5.70959 0.811768 11.566 0.811768V-0.188232ZM-0.0562241 11.3797C-0.0570448 13.4186 0.478248 15.4093 1.4959 17.1644L2.36099 16.6628C1.43195 15.0605 0.943026 13.243 0.943776 11.3801L-0.0562241 11.3797ZM1.44635 16.781L-0.131506 22.5168L0.832678 22.782L2.41054 17.0462L1.44635 16.781ZM0.476885 23.1332L6.37285 21.594L6.12025 20.6264L0.224287 22.1656L0.476885 23.1332ZM6.00801 21.5496C7.70598 22.4713 9.61698 22.9568 11.5614 22.9575L11.5618 21.9575C9.78326 21.9569 8.0362 21.5128 6.48509 20.6708L6.00801 21.5496ZM11.5616 22.9575H11.5662V21.9575H11.5616V22.9575ZM11.5662 22.9575C17.9699 22.9575 23.1856 17.7701 23.1882 11.389L22.1882 11.3885C22.1858 17.2134 17.4219 21.9575 11.5662 21.9575V22.9575ZM23.1882 11.3889C23.1894 8.29799 21.9804 5.38959 19.7866 3.20375L19.0808 3.91214C21.0867 5.91073 22.1893 8.56428 22.1882 11.3886L23.1882 11.3889Z"
    fill="url(#svg1955291880_14340_paint0_linear_62_178)" mask="url(#svg1955291880_14340_path-1-inside-1_62_178)">
  </path>
  <defs>
    <linearGradient id="svg1955291880_14340_paint0_linear_62_178" x1="11.5194" y1="0.311768" x2="11.5194" y2="22.6494"
      gradientUnits="userSpaceOnUse">
      <stop stop-color="white"></stop>
      <stop offset="1" stop-color="white" stop-opacity="0"></stop>
    </linearGradient>
  </defs>
</svg>