<?xml version="1.0" encoding="UTF-8" standalone="no"?>
<svg
   width="40"
   height="40"
   viewBox="0 0 40 40"
   fill="none"
   id="svg1955291880_14340"
   version="1.1"
   sodipodi:docname="whatsapp.svg"
   inkscape:version="1.1.2 (b8e25be833, 2022-02-05)"
   xmlns:inkscape="http://www.inkscape.org/namespaces/inkscape"
   xmlns:sodipodi="http://sodipodi.sourceforge.net/DTD/sodipodi-0.dtd"
   xmlns="http://www.w3.org/2000/svg"
   xmlns:svg="http://www.w3.org/2000/svg">
  <sodipodi:namedview
     id="namedview17"
     pagecolor="#ffffff"
     bordercolor="#666666"
     borderopacity="1.0"
     inkscape:pageshadow="2"
     inkscape:pageopacity="0.0"
     inkscape:pagecheckerboard="true"
     showgrid="false"
     inkscape:showpageshadow="false"
     width="40px"
     inkscape:zoom="15.630435"
     inkscape:cx="28.438108"
     inkscape:cy="22.232267"
     inkscape:window-width="1920"
     inkscape:window-height="1001"
     inkscape:window-x="-9"
     inkscape:window-y="-9"
     inkscape:window-maximized="1"
     inkscape:current-layer="svg1955291880_14340" />
  <mask
     id="svg1955291880_14340_path-1-inside-1_62_178"
     fill="#ffffff">
    <path
       fill-rule="evenodd"
       clip-rule="evenodd"
       d="m 16.6368,13.6978 c -0.2779,-0.1385 -1.6442,-0.8075 -1.899,-0.8999 -0.2547,-0.0923 -0.4399,-0.1384 -0.6252,0.1384 -0.1853,0.2769 -0.7179,0.8999 -0.88,1.0845 -0.1621,0.1846 -0.3242,0.2078 -0.6021,0.0692 C 12.3526,13.9516 11.4572,13.6596 10.3957,12.7173 9.56958,11.9839 9.0118,11.0782 8.84972,10.8013 8.68759,10.5244 8.8324,10.3748 8.97153,10.2369 9.09661,10.1129 9.24948,9.91383 9.3884,9.75231 9.52739,9.59087 9.57368,9.47542 9.66631,9.29093 9.75893,9.10631 9.71264,8.94483 9.6431,8.80641 9.57368,8.66799 9.0179,7.30661 8.78633,6.75275 8.56072,6.21353 8.33163,6.28656 8.16105,6.278 7.99914,6.27001 7.81363,6.26832 7.62843,6.26832 c -0.18524,0 -0.48637,0.06921 -0.74111,0.34601 -0.2547,0.27689 -0.97261,0.94607 -0.97261,2.30732 0,1.36145 0.99578,2.67645 1.13473,2.86105 0.13896,0.1847 1.95961,2.9782 4.74746,4.1762 0.663,0.285 1.1807,0.4551 1.5842,0.5826 0.6657,0.2105 1.2716,0.1808 1.7504,0.1096 0.534,-0.0794 1.6442,-0.669 1.8758,-1.315 0.2316,-0.6462 0.2316,-1.1999 0.1621,-1.3153 -0.0695,-0.1154 -0.2547,-0.1846 -0.5326,-0.323 z m -5.0707,6.8903 H 11.5624 C 9.90356,20.5875 8.27662,20.1439 6.8573,19.3057 L 6.51971,19.1064 3.02098,20.0198 3.95485,16.6248 3.73509,16.2767 C 2.80969,14.8119 2.32092,13.119 2.32167,11.3806 2.32372,6.30809 6.47071,2.18128 11.5698,2.18128 c 2.4691,8.3e-4 4.7902,0.95905 6.5356,2.69805 1.7453,1.73895 2.7059,4.05044 2.705,6.50867 -0.0021,5.0729 -4.1491,9.2001 -9.2443,9.2001 z M 19.4337,3.55794 C 17.3338,1.46573 14.5413,0.312983 11.566,0.311768 5.43563,0.311768 0.446263,5.27697 0.443776,11.3799 c -7.85e-4,1.9509 0.511323,3.855 1.484674,5.5337 L 0.350586,22.6494 6.24655,21.1102 c 1.62454,0.8819 3.45357,1.3467 5.31505,1.3473 h 0.0046 c 6.1297,0 11.1195,-4.9657 11.122,-11.0688 0.0012,-2.95756 -1.1547,-5.73854 -3.2545,-7.83076"
       id="path2" />
  </mask>
  <circle
     style="fill:#0bb048;stroke-width:2.81448;fill-opacity:1"
     id="path45"
     cx="20"
     cy="20"
     inkscape:label="outer-round"
     r="20" />
  <g
     id="g21"
     inkscape:label="inner"
     transform="translate(8.4806065,8.519416)">
    <path
       fill-rule="evenodd"
       clip-rule="evenodd"
       d="m 16.6368,13.6978 c -0.2779,-0.1385 -1.6442,-0.8075 -1.899,-0.8999 -0.2547,-0.0923 -0.4399,-0.1384 -0.6252,0.1384 -0.1853,0.2769 -0.7179,0.8999 -0.88,1.0845 -0.1621,0.1846 -0.3242,0.2078 -0.6021,0.0692 C 12.3526,13.9516 11.4572,13.6596 10.3957,12.7173 9.56958,11.9839 9.0118,11.0782 8.84972,10.8013 8.68759,10.5244 8.8324,10.3748 8.97153,10.2369 9.09661,10.1129 9.24948,9.91383 9.3884,9.75231 9.52739,9.59087 9.57368,9.47542 9.66631,9.29093 9.75893,9.10631 9.71264,8.94483 9.6431,8.80641 9.57368,8.66799 9.0179,7.30661 8.78633,6.75275 8.56072,6.21353 8.33163,6.28656 8.16105,6.278 7.99914,6.27001 7.81363,6.26832 7.62843,6.26832 c -0.18524,0 -0.48637,0.06921 -0.74111,0.34601 -0.2547,0.27689 -0.97261,0.94607 -0.97261,2.30732 0,1.36145 0.99578,2.67645 1.13473,2.86105 0.13896,0.1847 1.95961,2.9782 4.74746,4.1762 0.663,0.285 1.1807,0.4551 1.5842,0.5826 0.6657,0.2105 1.2716,0.1808 1.7504,0.1096 0.534,-0.0794 1.6442,-0.669 1.8758,-1.315 0.2316,-0.6462 0.2316,-1.1999 0.1621,-1.3153 -0.0695,-0.1154 -0.2547,-0.1846 -0.5326,-0.323 z m -5.0707,6.8903 H 11.5624 C 9.90356,20.5875 8.27662,20.1439 6.8573,19.3057 L 6.51971,19.1064 3.02098,20.0198 3.95485,16.6248 3.73509,16.2767 C 2.80969,14.8119 2.32092,13.119 2.32167,11.3806 2.32372,6.30809 6.47071,2.18128 11.5698,2.18128 c 2.4691,8.3e-4 4.7902,0.95905 6.5356,2.69805 1.7453,1.73895 2.7059,4.05044 2.705,6.50867 -0.0021,5.0729 -4.1491,9.2001 -9.2443,9.2001 z M 19.4337,3.55794 C 17.3338,1.46573 14.5413,0.312983 11.566,0.311768 5.43563,0.311768 0.446263,5.27697 0.443776,11.3799 c -7.85e-4,1.9509 0.511323,3.855 1.484674,5.5337 L 0.350586,22.6494 6.24655,21.1102 c 1.62454,0.8819 3.45357,1.3467 5.31505,1.3473 h 0.0046 c 6.1297,0 11.1195,-4.9657 11.122,-11.0688 0.0012,-2.95756 -1.1547,-5.73854 -3.2545,-7.83076"
       fill="#ffffff"
       fill-opacity="0.9"
       id="path5"
       sodipodi:insensitive="true" />
    <path
       d="m 14.7378,12.7979 0.1705,-0.47 -10e-5,-10e-5 z m -0.6252,0.1384 -0.4155,-0.2781 -1e-4,10e-5 z m -0.88,1.0845 -0.3757,-0.33 v 10e-5 z m -0.6021,0.0692 0.2232,-0.4475 -3e-4,-10e-5 z m -2.2348,-1.3727 0.3319,-0.374 v 0 z m -1.54598,-1.916 0.43151,-0.2526 h -3e-5 z m 0.12181,-0.5644 -0.3519,-0.35523 -8e-5,8e-5 z M 9.3884,9.75231 9.0095,9.42606 9.00931,9.42628 Z M 9.66631,9.29093 10.1132,9.51527 V 9.51514 Z M 9.6431,8.80641 9.19614,9.03054 9.19631,9.03088 Z M 8.78633,6.75275 9.24763,6.55988 9.24758,6.55977 Z M 8.16105,6.278 8.18608,5.77863 8.18569,5.77861 Z M 6.88732,6.61433 6.51941,6.27574 l -8e-5,9e-5 z m 4.90958,9.34457 0.1975,-0.4594 h -10e-5 z m 1.5842,0.5826 0.1508,-0.4768 h -2e-4 z m 1.7504,0.1096 -0.0735,-0.4946 h -10e-5 z m 1.8758,-1.315 0.4707,0.1687 v -10e-5 z m -5.4449,5.252 -2e-4,0.5 h 2e-4 z M 6.8573,19.3057 6.60304,19.7363 v 0 z M 6.51971,19.1064 6.77397,18.6758 6.59477,18.57 6.3934,18.6226 Z M 3.02098,20.0198 2.53889,19.8872 2.30915,20.7224 3.14729,20.5036 Z m 0.93387,-3.395 0.48209,0.1326 0.05855,-0.2128 -0.11785,-0.1867 z m -0.21976,-0.3481 0.4228,-0.2669 -9e-5,-2e-4 z m -1.41342,-4.8961 0.5,2e-4 v 0 z m 9.24813,-9.19932 2e-4,-0.5 h -2e-4 z m 6.5356,2.69805 0.3529,-0.3542 z m 2.705,6.50867 0.5,2e-4 v 0 z M 11.566,0.311768 l 2e-4,-0.5 h -2e-4 z M 0.443776,11.3799 l -0.5000001,-2e-4 v 0 z M 1.92845,16.9136 2.41054,17.0462 2.46613,16.8441 2.36099,16.6628 Z M 0.350586,22.6494 -0.131506,22.5168 -0.361264,23.352 0.476885,23.1332 Z M 6.24655,21.1102 6.48509,20.6708 6.31143,20.5765 6.12025,20.6264 Z m 5.31505,1.3473 -2e-4,0.5 h 2e-4 z m 11.1266,-11.0688 0.5,3e-4 v -10e-5 z m -5.8285,1.8615 C 16.7183,13.1798 16.3051,12.9769 15.8952,12.7799 15.501,12.5905 15.0657,12.385 14.9083,12.3279 l -0.341,0.9401 c 0.0974,0.0353 0.4727,0.2104 0.8948,0.4133 0.4063,0.1952 0.8152,0.396 0.9518,0.464 z m -1.9515,-0.9224 c -0.1125,-0.0407 -0.3303,-0.1227 -0.5656,-0.0959 -0.2903,0.0331 -0.4988,0.2071 -0.6455,0.4263 l 0.831,0.5563 c 0.0224,-0.0334 0.0279,-0.0316 0.0112,-0.0198 -0.009,0.0062 -0.0218,0.0135 -0.0382,0.0197 -0.0163,0.0062 -0.032,0.0096 -0.0453,0.0111 -0.0249,0.0028 -0.0326,-0.002 -0.0098,0.0033 0.0108,0.0025 0.0258,0.0066 0.0468,0.0134 0.0211,0.0067 0.0451,0.0151 0.0747,0.0258 z m -1.2112,0.3305 c -0.1634,0.2442 -0.6722,0.8414 -0.8401,1.0325 l 0.7514,0.66 c 0.1563,-0.178 0.7128,-0.8269 0.9198,-1.1364 z m -0.8401,1.0326 c -0.0177,0.0201 -0.0209,0.0191 -0.0091,0.0118 0.0064,-0.0039 0.0161,-0.0089 0.0287,-0.0134 0.0128,-0.0046 0.0259,-0.0076 0.0385,-0.0091 0.0256,-0.0031 0.0373,0.0014 0.0271,-0.0012 -0.0118,-0.003 -0.0396,-0.0121 -0.0884,-0.0365 l -0.4463,0.895 c 0.172,0.0857 0.3883,0.1644 0.6276,0.1355 0.2597,-0.0314 0.4443,-0.1753 0.5733,-0.3223 z m -0.0035,-0.0485 c -0.3268,-0.1627 -1.1291,-0.4143 -2.1258,-1.2991 l -0.6639,0.7479 c 1.1263,0.9999 2.1149,1.3323 2.344,1.4464 z M 10.7276,12.3433 C 9.96093,11.6627 9.43489,10.8112 9.28123,10.5487 l -0.86302,0.5052 c 0.17049,0.2913 0.76002,1.2512 1.64549,2.0373 z M 9.2812,10.5487 C 9.26667,10.5239 9.27346,10.5265 9.27675,10.5523 9.2784,10.5652 9.27874,10.5808 9.27665,10.5979 9.27457,10.615 9.27054,10.6299 9.26607,10.6419 9.25766,10.6644 9.24966,10.6712 9.25938,10.6592 9.2639,10.6536 9.27092,10.6456 9.28201,10.6339 9.29338,10.622 9.30619,10.6091 9.32351,10.592 L 8.61955,9.88175 C 8.56348,9.93731 8.40724,10.0832 8.32923,10.2921 8.23321,10.5493 8.27718,10.813 8.41824,11.054 Z m 0.04223,0.0434 C 9.46597,10.4508 9.66075,10.2024 9.76748,10.0783 L 9.00931,9.42628 C 8.83822,9.62522 8.72725,9.77505 8.61963,9.88167 Z M 9.76729,10.0785 C 9.95607,9.85931 10.0321,9.67673 10.1132,9.51527 L 9.21946,9.06659 C 9.11528,9.27411 9.09872,9.32243 9.0095,9.42606 Z M 10.1132,9.51514 C 10.3086,9.12578 10.1908,8.78282 10.0899,8.58194 L 9.19631,9.03088 C 9.20642,9.051 9.21216,9.06504 9.21542,9.07466 9.21856,9.08396 9.2186,9.08689 9.21838,9.08483 9.21809,9.08213 9.21796,9.07666 9.21907,9.07031 9.2202,9.06387 9.2216,9.06233 9.2194,9.06672 Z M 10.09,8.58228 C 10.0909,8.58389 10.0883,8.57875 10.0808,8.56207 10.0741,8.54715 10.0655,8.52738 10.0548,8.5027 10.0335,8.45341 10.0059,8.38849 9.97343,8.31122 9.90854,8.1569 9.82579,7.95758 9.73756,7.74426 9.56181,7.31936 9.36388,6.83792 9.24763,6.55988 L 8.32502,6.94563 C 8.44035,7.22144 8.6361,7.69762 8.81349,8.12648 8.98364,8.53786 9.15072,8.93996 9.19614,9.03054 Z M 9.24758,6.55977 C 9.11261,6.23716 8.93303,5.98954 8.66581,5.8639 8.5359,5.80282 8.41587,5.78579 8.32733,5.78077 8.28554,5.77839 8.24756,5.77863 8.22492,5.77875 8.19705,5.7789 8.19048,5.77885 8.18608,5.77863 L 8.13601,6.77738 c 0.03824,0.00191 0.07615,0.00145 0.09434,0.00135 0.02343,-1.2e-4 0.0331,2e-5 0.04029,4.3e-4 C 8.28008,6.7797 8.26341,6.77972 8.2403,6.76885 8.18667,6.74364 8.23444,6.72912 8.32507,6.94573 Z M 8.18569,5.77861 C 8.01076,5.76998 7.81493,5.76832 7.62843,5.76832 v 1 c 0.18391,0 0.3591,0.00173 0.50797,0.00908 z M 7.62843,5.76832 c -0.2991,0 -0.74335,0.11009 -1.10902,0.50742 L 7.25522,6.95292 C 7.39904,6.79665 7.55704,6.76832 7.62843,6.76832 Z M 6.51933,6.27583 C 6.26256,6.55497 5.41471,7.35101 5.41471,8.92165 h 1 c 0,-1.15186 0.58797,-1.69418 0.8406,-1.96881 z M 5.41471,8.92165 c 0,0.79374 0.28724,1.54505 0.56987,2.09905 0.28625,0.5611 0.5907,0.9635 0.66537,1.0627 L 7.44893,11.4821 C 7.38465,11.3966 7.12173,11.0492 6.87536,10.5663 6.62536,10.0762 6.41471,9.48932 6.41471,8.92165 Z m 1.23524,3.16175 c -3.7e-4,-5e-4 0.00201,0.0027 0.00941,0.0132 0.00674,0.0095 0.01522,0.0216 0.02619,0.0372 0.02157,0.0308 0.05053,0.0722 0.08592,0.122 0.07095,0.0998 0.16772,0.2333 0.28876,0.3921 0.24183,0.3171 0.58078,0.7349 1.00572,1.1858 0.84535,0.897 2.05225,1.948 3.53355,2.5846 l 0.3948,-0.9188 C 9.35425,14.365 7.61458,11.7021 7.44893,11.4821 Z m 4.94945,4.3348 c 0.6848,0.2944 1.2203,0.4703 1.6312,0.6001 l 0.3011,-0.9536 c -0.3962,-0.1251 -0.8962,-0.2896 -1.5373,-0.5652 z m 1.631,0.6 c 0.7648,0.2419 1.4544,0.2048 1.9747,0.1274 l -0.1472,-0.9891 c -0.4374,0.0651 -0.9594,0.0874 -1.526,-0.0918 z m 1.9746,0.1274 c 0.3603,-0.0535 0.8385,-0.2576 1.2467,-0.518 0.3958,-0.2525 0.8522,-0.6373 1.0263,-1.1228 l -0.9413,-0.3375 c -0.0576,0.1605 -0.2721,0.3936 -0.6228,0.6172 -0.3383,0.2158 -0.6822,0.3462 -0.8559,0.372 z m 2.273,-1.6409 c 0.1305,-0.3641 0.1974,-0.7063 0.2214,-0.9821 0.0119,-0.1374 0.0138,-0.2659 0.005,-0.3777 -0.0066,-0.0842 -0.024,-0.2447 -0.1066,-0.382 l -0.8568,0.5158 c -0.0173,-0.0289 -0.0264,-0.0522 -0.0304,-0.0634 -0.0044,-0.0122 -0.0061,-0.0199 -0.0064,-0.0213 -5e-4,-0.0021 0.0015,0.0067 0.0033,0.0293 0.0035,0.0447 0.004,0.1166 -0.0044,0.2129 -0.0166,0.1914 -0.0654,0.4492 -0.1665,0.7312 z m 0.1198,-1.7418 c -0.1085,-0.1802 -0.2774,-0.2794 -0.3768,-0.3337 -0.0983,-0.0538 -0.2512,-0.1241 -0.3612,-0.179 l -0.446,0.8951 c 0.0732,0.0365 0.1419,0.0691 0.1964,0.0954 0.0576,0.0278 0.0987,0.0482 0.1313,0.066 0.0156,0.0085 0.0267,0.0151 0.0345,0.02 0.0078,0.005 0.0106,0.0072 0.0099,0.0067 -8e-4,-6e-4 -0.0227,-0.0179 -0.0449,-0.0547 z m -6.0317,6.3252 h -0.0037 v 1 h 0.0037 z m -0.0035,0 C 9.99256,20.0875 8.45343,19.6677 7.11156,18.8752 l -0.50852,0.8611 c 1.49676,0.8839 3.21151,1.3511 4.95916,1.3518 z m -4.45103,-1.2129 -0.3376,-0.1994 -0.50853,0.8611 0.3376,0.1994 z M 6.3934,18.6226 2.89468,19.536 3.14729,20.5036 6.64601,19.5901 Z m -2.89032,1.5298 0.93386,-3.395 -0.96419,-0.2652 -0.93386,3.395 z m 0.87456,-3.7945 -0.21975,-0.3481 -0.8456,0.5338 0.21976,0.3481 z M 4.1578,16.0096 C 3.2831,14.6251 2.82097,13.0249 2.82167,11.3808 l -1,-4e-4 c -7.9e-4,1.8326 0.51461,3.6183 1.49071,5.1634 z M 2.82167,11.3808 C 2.8236,6.5866 6.74453,2.68128 11.5698,2.68128 v -1 c -5.3729,0 -9.74597,4.34831 -9.74813,9.69912 z M 11.5696,2.68128 c 2.3373,7.8e-4 4.5314,0.9068 6.1829,2.55225 l 0.7058,-0.7084 C 16.619,2.69258 14.171,1.68215 11.57,1.68128 Z m 6.1829,2.55225 c 1.6513,1.64532 2.5588,3.82936 2.5579,6.15427 l 1,4e-4 C 21.3114,8.79664 20.2976,6.35772 18.4583,4.52513 Z m 2.5579,6.15427 c -0.002,4.7948 -3.9231,8.7003 -8.7443,8.7003 v 1 c 5.3692,0 9.742,-4.3489 9.7443,-9.6999 z M 19.7866,3.20374 C 17.5928,1.01789 14.6733,-0.186963 11.5662,-0.188232 l -4e-4,1 c 2.8436,0.001161 5.5091,1.101802 7.515,3.100372 z M 11.566,-0.188232 c -6.40433,0 -11.6196239,5.186832 -11.6222241,11.567932 l 1.0000001,4e-4 C 0.946149,5.55533 5.70959,0.811768 11.566,0.811768 Z M -0.0562241,11.3797 C -0.0570448,13.4186 0.478248,15.4093 1.4959,17.1644 L 2.36099,16.6628 C 1.43195,15.0605 0.943026,13.243 0.943776,11.3801 Z M 1.44635,16.781 -0.131506,22.5168 0.832678,22.782 2.41054,17.0462 Z M 0.476885,23.1332 6.37285,21.594 6.12025,20.6264 0.224287,22.1656 Z M 6.00801,21.5496 c 1.69797,0.9217 3.60897,1.4072 5.55339,1.4079 l 4e-4,-1 C 9.78326,21.9569 8.0362,21.5128 6.48509,20.6708 Z m 5.55359,1.4079 h 0.0046 v -1 h -0.0046 z m 0.0046,0 c 6.4037,0 11.6194,-5.1874 11.622,-11.5685 l -1,-5e-4 c -0.0024,5.8249 -4.7663,10.569 -10.622,10.569 z M 23.1882,11.3889 C 23.1894,8.29799 21.9804,5.38959 19.7866,3.20375 l -0.7058,0.70839 c 2.0059,1.99859 3.1085,4.65214 3.1074,7.47646 z"
       fill="url(#svg1955291880_14340_paint0_linear_62_178)"
       mask="url(#svg1955291880_14340_path-1-inside-1_62_178)"
       id="path7"
       sodipodi:insensitive="true"
       style="fill:url(#svg1955291880_14340_paint0_linear_62_178)" />
  </g>
  <defs
     id="defs14">
    <linearGradient
       id="svg1955291880_14340_paint0_linear_62_178"
       x1="11.5194"
       y1="0.311768"
       x2="11.5194"
       y2="22.649401"
       gradientUnits="userSpaceOnUse">
      <stop
         stop-color="white"
         id="stop9" />
      <stop
         offset="1"
         stop-color="white"
         stop-opacity="0"
         id="stop11" />
    </linearGradient>
  </defs>
</svg>
