<?xml version="1.0" encoding="UTF-8" standalone="no"?>
<svg
   width="40"
   height="40"
   viewBox="0 0 40 40"
   fill="none"
   id="svg-1530974270_1992"
   version="1.1"
   sodipodi:docname="xicon.svg"
   inkscape:version="1.1.2 (b8e25be833, 2022-02-05)"
   xmlns:inkscape="http://www.inkscape.org/namespaces/inkscape"
   xmlns:sodipodi="http://sodipodi.sourceforge.net/DTD/sodipodi-0.dtd"
   xmlns="http://www.w3.org/2000/svg"
   xmlns:svg="http://www.w3.org/2000/svg">
  <sodipodi:namedview
     id="namedview12"
     pagecolor="#ffffff"
     bordercolor="#666666"
     borderopacity="1.0"
     inkscape:pageshadow="2"
     inkscape:pageopacity="0.0"
     inkscape:pagecheckerboard="true"
     showgrid="false"
     width="40px"
     inkscape:showpageshadow="false"
     inkscape:zoom="13.826923"
     inkscape:cx="25.059805"
     inkscape:cy="21.588317"
     inkscape:window-width="1920"
     inkscape:window-height="1001"
     inkscape:window-x="-9"
     inkscape:window-y="-9"
     inkscape:window-maximized="1"
     inkscape:current-layer="svg-1530974270_1992" />
  <circle
     style="fill:#0081f5;fill-opacity:1;stroke-width:4.57748"
     id="path851"
     cx="20"
     cy="20"
     inkscape:label="outer"
     r="20" />
  <path
     d="m 15.926244,17.220203 h 10e-6 c 0.66646,-1.04621 2.09436,-1.30632 3.092261,-0.56563 v 2e-5 l 2.942499,2.18471 c 0,10e-5 10e-5,10e-5 10e-5,10e-5 0.1819,0.1346 0.430501,0.1332 0.6113,-0.0017 1e-4,-10e-5 1e-4,-10e-5 2e-4,-2e-4 l 3.973601,-2.98468 c 9.9e-5,-3e-5 9.9e-5,-7e-5 1.99e-4,-1.1e-4 0.374401,-0.28181 0.813701,-0.19544 1.0843,0.0502 0.2712,0.24618 0.3976,0.67545 0.1435,1.07191 l 10e-5,-2.7e-4 -0.2108,-0.13422 0.2103,0.13498 z m 0,0 -3.700129,5.8092 c -8e-5,10e-5 -1.7e-4,3e-4 -2.5e-4,4e-4 -0.25423,0.3965 -0.127871,0.8258 0.143349,1.072 0.27065,0.2457 0.71002,0.332 1.08452,0.0501 l 3.97618,-2.9872 m -1.50367,-3.9445 1.50397,3.9443 m 0,0 3e-4,-2e-4 -0.1502,-0.1999 0.1496,0.2003 m 3e-4,-2e-4 c -10e-5,0 -2e-4,10e-5 -3e-4,2e-4 m 3e-4,-2e-4 -3e-4,2e-4 m -5.9042,7.2217 -7.1e-4,-6e-4 c -2.3978795,-2.1229 -3.8724185,-5.1956 -3.8724185,-8.7585 0,-6.7994 5.3767885,-11.8439294 12.3474285,-11.8439294 6.9706,0 12.3474,5.0445294 12.3474,11.8439294 0,6.7994 -5.3768,11.8439 -12.3474,11.8439 -1.2533,0 -2.4554,-0.1628 -3.58157,-0.4703 l -7.7e-4,-2e-4 c -0.27812,-0.075 -0.57199,-0.053 -0.836659,0.0624 h -1.7e-4 l -2.49855,1.091 c -1.1e-4,0 -2.1e-4,1e-4 -3.21e-4,1e-4 -0.49582,0.2147 -1.04753,-0.1349 -1.064729,-0.6615 0,-10e-5 -1e-5,-2e-4 -1e-5,-3e-4 l -0.06845,-2.2173 -6e-5,-0.0015 c -0.0128,-0.3447 -0.169469,-0.661 -0.42301,-0.8872 z m 6.5159,-7.2236 0.1487,-0.2009 -0.1491,0.2007 2e-4,10e-5 c 0,0 10e-5,10e-5 2e-4,10e-5 z"
     fill="#ffffff"
     fill-opacity="0.9"
     stroke="url(#svg-1530974270_1992_paint0_linear_62_176)"
     stroke-width="0.5"
     id="path2"
     inkscape:label="inner"
     style="stroke:url(#svg-1530974270_1992_paint0_linear_62_176)" />
  <defs
     id="defs9">
    <linearGradient
       id="svg-1530974270_1992_paint0_linear_62_176"
       x1="13.1299"
       y1="0.532471"
       x2="13.1299"
       y2="25.467501"
       gradientUnits="userSpaceOnUse"
       gradientTransform="translate(6.8701145,7.0009026)">
      <stop
         stop-color="white"
         id="stop4" />
      <stop
         offset="1"
         stop-color="white"
         stop-opacity="0"
         id="stop6" />
    </linearGradient>
  </defs>
</svg>
