<svg width="26" height="26" viewBox="0 0 26 26" fill="none" xmlns="http://www.w3.org/2000/svg" id="svg-1530974270_1992">
  <path
    d="M9.05613 10.2193L9.05614 10.2193C9.7226 9.17309 11.1505 8.91298 12.1484 9.65367L12.1484 9.65369L15.0909 11.8384C15.0909 11.8385 15.091 11.8385 15.091 11.8385C15.2729 11.9731 15.5215 11.9717 15.7023 11.8368C15.7024 11.8367 15.7024 11.8367 15.7025 11.8366L19.6761 8.85192C19.6762 8.85189 19.6762 8.85185 19.6763 8.85181C20.0507 8.57 20.49 8.65637 20.7606 8.90201C21.0318 9.14819 21.1582 9.57746 20.9041 9.97392L20.9042 9.97365L20.6934 9.83943L20.9037 9.97441L9.05613 10.2193ZM9.05613 10.2193L5.356 16.0285C5.35592 16.0286 5.35583 16.0288 5.35575 16.0289C5.10152 16.4254 5.22788 16.8547 5.4991 17.1009C5.76975 17.3466 6.20912 17.4329 6.58362 17.151L10.5598 14.1638M9.05613 10.2193L10.5601 14.1636M10.5601 14.1636L10.5604 14.1634L10.4102 13.9635L10.5598 14.1638M10.5601 14.1636C10.56 14.1636 10.5599 14.1637 10.5598 14.1638M10.5601 14.1636L10.5598 14.1638M4.6556 21.3855L4.65489 21.3849C2.25701 19.262 0.782471 16.1893 0.782471 12.6264C0.782471 5.827 6.15926 0.782471 13.1299 0.782471C20.1005 0.782471 25.4773 5.827 25.4773 12.6264C25.4773 19.4258 20.1005 24.4703 13.1299 24.4703C11.8766 24.4703 10.6745 24.3075 9.54833 24L9.54756 23.9998C9.26944 23.9248 8.97557 23.9468 8.7109 24.0622L8.71073 24.0622L6.21218 25.1532C6.21207 25.1532 6.21197 25.1533 6.21186 25.1533C5.71604 25.368 5.16433 25.0184 5.14713 24.4918C5.14713 24.4917 5.14712 24.4916 5.14712 24.4915L5.07867 22.2742L5.07861 22.2727C5.06581 21.928 4.90914 21.6117 4.6556 21.3855ZM11.1715 14.1619L11.3202 13.961L11.1711 14.1617L11.1713 14.1618C11.1713 14.1618 11.1714 14.1619 11.1715 14.1619Z"
    fill="white" fill-opacity="0.9" stroke="url(#svg-1530974270_1992_paint0_linear_62_176)" stroke-width="0.5"></path>
  <defs>
    <linearGradient id="svg-1530974270_1992_paint0_linear_62_176" x1="13.1299" y1="0.532471" x2="13.1299" y2="25.4675"
      gradientUnits="userSpaceOnUse">
      <stop stop-color="white"></stop>
      <stop offset="1" stop-color="white" stop-opacity="0"></stop>
    </linearGradient>
  </defs>
</svg>